<?xml version="1.0" standalone="no"?>
<!DOCTYPE svg PUBLIC "-//W3C//DTD SVG 20010904//EN"
 "http://www.w3.org/TR/2001/REC-SVG-20010904/DTD/svg10.dtd">
<svg version="1.0" xmlns="http://www.w3.org/2000/svg"
 width="275.000000pt" height="183.000000pt" viewBox="0 0 275.000000 183.000000"
 preserveAspectRatio="xMidYMid meet">

<g transform="translate(0.000000,183.000000) scale(0.100000,-0.100000)"
fill="#000000" stroke="none">
<path d="M16 1821 c5 -5 278 -210 607 -456 491 -367 597 -450 585 -460 -7 -7
-276 -209 -598 -450 -322 -241 -589 -442 -595 -446 -5 -5 586 -9 1363 -9
l1372 0 0 915 0 915 -1372 0 c-802 0 -1368 -4 -1362 -9z"/>
<path d="M450 1239 c0 -5 5 -7 11 -4 6 4 16 -1 24 -11 7 -11 17 -16 21 -11 4
4 2 7 -4 7 -24 0 -11 19 16 23 16 2 9 5 -20 6 -28 0 -48 -3 -48 -10z"/>
<path d="M303 1220 c-13 -5 -23 -12 -23 -15 0 -4 4 -4 9 -1 5 4 27 7 50 8 22
1 46 5 53 9 18 12 -61 10 -89 -1z"/>
<path d="M540 1221 c12 -9 13 -11 1 -11 -8 0 -11 -3 -8 -6 4 -4 13 -1 22 6 8
7 22 9 32 5 28 -12 67 -15 57 -5 -5 5 -34 12 -64 15 -40 5 -51 4 -40 -4z"/>
<path d="M405 1189 c-4 -6 -5 -12 -2 -15 2 -3 7 2 10 11 7 17 1 20 -8 4z"/>
<path d="M505 1191 c-6 -5 -19 -11 -30 -14 -19 -4 -19 -5 1 -6 12 0 27 6 34
14 14 16 10 20 -5 6z"/>
<path d="M217 1124 c10 -61 10 -188 -1 -275 -14 -105 12 -133 139 -149 43 -5
84 -15 91 -21 10 -8 24 -7 54 5 22 9 55 16 73 16 51 0 102 18 127 45 22 23 22
29 15 102 -11 106 -12 207 -1 272 8 50 7 53 -10 47 -23 -9 -455 -9 -478 0 -16
6 -17 2 -9 -42z m248 -7 c111 0 206 3 211 6 6 3 5 -27 -1 -71 -9 -60 -8 -93 2
-147 23 -123 5 -149 -117 -164 -40 -5 -77 -14 -82 -19 -6 -6 -19 -5 -36 4 -15
8 -43 14 -62 14 -68 0 -110 19 -125 55 -12 28 -12 44 -1 105 13 67 9 170 -9
218 -3 8 0 10 7 6 6 -4 102 -7 213 -7z"/>
<path d="M276 1101 c-4 -5 -2 -13 4 -16 8 -5 7 -11 -1 -21 -13 -16 -6 -30 10
-19 13 8 14 52 2 60 -5 3 -12 1 -15 -4z"/>
<path d="M323 1085 c0 -8 4 -12 9 -9 5 3 6 10 3 15 -9 13 -12 11 -12 -6z"/>
<path d="M361 1081 c-6 -11 -8 -27 -4 -37 4 -11 3 -15 -4 -11 -6 4 -14 1 -17
-5 -4 -7 -4 -2 -2 12 4 21 3 23 -7 9 -7 -9 -18 -14 -24 -12 -16 6 -16 -7 0
-28 15 -19 47 -21 47 -2 0 7 5 13 10 13 6 0 10 7 10 15 0 8 6 12 14 9 11 -4
14 1 12 22 -4 35 -21 42 -35 15z"/>
<path d="M434 1068 l-19 -23 23 19 c21 18 27 26 19 26 -2 0 -12 -10 -23 -22z"/>
<path d="M485 1070 c10 -11 20 -20 23 -20 3 0 -3 9 -13 20 -10 11 -20 20 -23
20 -3 0 3 -9 13 -20z"/>
<path d="M324 936 c-3 -8 -4 -25 -2 -38 3 -17 5 -13 9 15 5 38 2 47 -7 23z"/>
<path d="M433 893 c15 -2 37 -2 50 0 12 2 0 4 -28 4 -27 0 -38 -2 -22 -4z"/>
<path d="M418 873 c7 -3 16 -2 19 1 4 3 -2 6 -13 5 -11 0 -14 -3 -6 -6z"/>
<path d="M478 873 c7 -3 16 -2 19 1 4 3 -2 6 -13 5 -11 0 -14 -3 -6 -6z"/>
<path d="M631 784 c0 -11 3 -14 6 -6 3 7 2 16 -1 19 -3 4 -6 -2 -5 -13z"/>
</g>
</svg>
