<?xml version="1.0" encoding="utf-8"?>
<!-- Generator: Adobe Illustrator 24.0.1, SVG Export Plug-In . SVG Version: 6.00 Build 0)  -->
<svg version="1.1" id="Layer_1" xmlns="http://www.w3.org/2000/svg" xmlns:xlink="http://www.w3.org/1999/xlink" x="0px" y="0px"
	 viewBox="0 0 479.1 195.3" style="enable-background:new 0 0 479.1 195.3;" xml:space="preserve">
<style type="text/css">
	.st0{fill:#FF0200;}
	.st1{fill:#FFFF00;}
	.st2{fill:#33FF03;}
	.st3{fill:#0002ED;}
	.st4{fill:#FFFFFF;}
</style>
<g>
	<path d="M298.6,186.5c-5-1.1-6.9-4.7-7.7-9.3c-0.7-4.1-0.7-8.1,0.6-12.1c1.7-5.4,6.1-8,11.4-6.6c1.3,0.4,2.7,1.2,3.7,2.2
		c1.8,1.8,2.4,4.2,2.7,6.8c-1.4,0.2-2.7,0.4-4,0.6c-0.3-1.1-0.5-2.2-0.9-3.2c-0.6-1.7-1.7-2.9-3.7-3c-2-0.1-3.3,0.9-4,2.6
		c-1.5,3.4-1.5,7-1.2,10.6c0.1,1.6,0.6,3.3,1.1,4.9c0.6,1.6,1.9,2.6,3.8,2.7c1.8,0.1,3-0.6,3.7-2.3c0.5-1.1,0.8-2.3,1.2-3.6
		c1.2,0.2,2.5,0.3,3.8,0.5c0.4,3.7-2.6,7.9-6.2,8.9c-0.3,0.1-0.6,0.2-0.9,0.3C300.9,186.5,299.8,186.5,298.6,186.5z"/>
	<path d="M212.3,186.5c-4.3-1.1-6.1-4.3-6.2-8.4c-0.1-2.5,0-5,0.6-7.4c0.8-3.5,3.3-5.2,7-5.3c3.6-0.1,6.2,1.6,7.3,5
		c1.3,3.9,1.2,7.8-0.2,11.6c-0.9,2.6-2.9,3.9-5.4,4.6C214.4,186.5,213.3,186.5,212.3,186.5z M210.1,176c0.3,1.8,0.5,3.5,0.9,5.2
		c0.4,1.5,1.5,2.2,2.8,2.2c1.3,0,2.3-0.7,2.7-2.1c1.1-3.4,1-6.9,0.1-10.4c-0.4-1.5-1.5-2.3-2.8-2.3c-1.3,0-2.4,0.7-2.8,2.3
		C210.6,172.5,210.4,174.3,210.1,176z"/>
	<path d="M251.4,186.5c-4.2-1.1-5.9-4.1-6.3-8.1c-0.3-2.6-0.2-5.3,0.6-7.8c1-3.4,3.4-5.1,7-5.2c3.5-0.1,6.2,1.6,7.3,4.8
		c1.3,3.9,1.2,7.9-0.1,11.9c-0.9,2.5-2.8,3.8-5.3,4.5C253.5,186.5,252.4,186.5,251.4,186.5z M256.5,176.5c-0.1-1.7-0.2-2.9-0.4-4.1
		c0-0.4-0.2-0.9-0.3-1.3c-0.5-1.6-1.6-2.5-2.9-2.6c-1.4,0-2.4,0.8-2.9,2.4c-1,3.4-0.9,6.8,0,10.1c0.4,1.5,1.5,2.3,2.9,2.3
		c1.3,0,2.4-0.7,2.8-2.2C256.1,179.4,256.3,177.7,256.5,176.5z"/>
	<path d="M164.8,186.5c-4.6-1.3-6-4.7-6.2-8.9c-0.1-2.4-0.1-4.9,0.7-7.2c1.1-3.3,3.4-4.9,6.9-5c3.5-0.1,6.1,1.5,7.2,4.6
		c1.5,4.1,1.4,8.2-0.1,12.3c-0.9,2.5-2.9,3.7-5.3,4.3C166.9,186.5,165.8,186.5,164.8,186.5z M170,176c-0.2-1.6-0.3-3.2-0.6-4.7
		c-0.4-1.8-1.5-2.8-3-2.8c-1.4,0-2.5,0.8-3,2.6c-0.9,3.2-0.9,6.5,0,9.7c0.5,1.7,1.5,2.5,2.9,2.5c1.4,0,2.5-0.8,2.9-2.6
		C169.7,179.2,169.8,177.6,170,176z"/>
	<path d="M38.1,186.5c-2.5-0.8-3.6-2.6-3.7-5.1c-0.1-4.9-0.1-9.9-0.1-14.8c0-0.2,0-0.4,0.1-0.7c1.3,0,2.6,0,4.1,0
		c0,0.4,0.1,0.8,0.1,1.3c0,3.7,0,7.3,0,11c0,0.9,0,1.8,0.1,2.6c0.1,1.1,0.4,2.1,1.7,2.3c1.3,0.2,2.7-0.3,3.1-1.5
		c0.4-1.1,0.7-2.2,0.7-3.4c0.1-3.6,0.1-7.3,0.1-10.9c0-0.5,0-0.9,0-1.5c1.4,0,2.7,0,4.1,0c0,6.7,0,13.3,0,20c-1.2,0-2.4,0-3.7,0
		c0-0.8,0-1.6,0-2.1c-1.3,0.9-2.5,1.8-3.8,2.7C39.9,186.5,39,186.5,38.1,186.5z"/>
	<path d="M318.3,186.5c-4.8-1.3-6.4-4.9-6.4-9.3c0-2.3,0.3-4.6,1-6.8c0.8-2.8,2.9-4.6,5.9-5c4.1-0.5,7.2,1.6,8.1,5.7
		c0.4,1.7,0.5,3.5,0.7,5.4c-4,0-7.7,0-11.7,0c0.3,1.6,0.4,3.1,0.8,4.6c0.4,1.4,1.8,2.3,3.2,2.3c1.4,0,2.5-0.7,3.1-2.2
		c0.2-0.5,0.3-1,0.5-1.5c1.2,0.2,2.4,0.3,3.6,0.5c-0.4,3.1-2.4,5.4-5.3,6.2c-0.2,0-0.4,0.2-0.5,0.2
		C320.4,186.5,319.3,186.5,318.3,186.5z M323.2,173.7c-0.1-1.8-0.1-3.6-1.7-4.8c-1-0.7-2.2-0.7-3.3,0c-1.7,1.1-1.8,3-2,4.8
		C318.6,173.7,320.9,173.7,323.2,173.7z"/>
	<path d="M380.2,186.5c-4.5-1.1-6.2-4.4-6.5-8.6c-0.2-2.8-0.1-5.6,1.2-8.2c1.5-3.2,4.2-4.6,7.8-4.3c2.9,0.3,5.2,2.3,5.9,5.6
		c0.4,1.7,0.5,3.5,0.8,5.5c-4,0-7.7,0-11.5,0c0,1.9,0,3.6,0.8,5.1c0.6,1.2,1.7,1.8,3.1,1.8c1.4,0,2.3-0.8,2.9-2
		c0.2-0.5,0.4-1.1,0.7-1.8c1.2,0.2,2.4,0.3,3.7,0.5c-0.7,3.4-2.6,5.6-6,6.4C382.1,186.5,381.1,186.5,380.2,186.5z M385,173.7
		c-0.1-1.9-0.1-3.7-1.8-4.8c-1.1-0.7-2.3-0.6-3.4,0.1c-1.2,0.8-1.9,3.1-1.6,4.7C380.4,173.7,382.6,173.7,385,173.7z"/>
	<path d="M74.6,186.5c-2.6-0.8-3.6-2.7-3.7-5.2c0-5-0.1-10-0.1-15c0-0.1,0.1-0.2,0.1-0.4c1.3,0,2.6,0,4.1,0c0,0.4,0,0.9,0,1.3
		c0,3.6,0,7.2,0,10.8c0,1,0,1.9,0.1,2.9c0.1,1.1,0.4,2.1,1.7,2.3c1.3,0.2,2.6-0.3,3.1-1.5c0.4-1,0.7-2.1,0.7-3.1
		c0.1-3.7,0.1-7.4,0.2-11.1c0-0.5,0-0.9,0-1.5c1.4,0,2.7,0,4.1,0c0,6.7,0,13.3,0,20.1c-1.2,0-2.4,0-3.7,0c0-0.8,0-1.6,0-2.2
		c-1.3,0.9-2.6,1.8-3.9,2.7C76.3,186.5,75.5,186.5,74.6,186.5z"/>
	<path d="M104.6,186.5c-2.6-0.8-3.6-2.7-3.6-5.3c0-4.9-0.1-9.8-0.1-14.7c0-0.2,0.1-0.4,0.1-0.6c1.3,0,2.6,0,4.1,0c0,0.5,0,0.9,0,1.3
		c0,4,0,8.1,0,12.1c0,0.6,0,1.1,0.1,1.7c0.1,1,0.5,2,1.7,2.2c1.3,0.2,2.6-0.3,3-1.4c0.4-0.9,0.7-2,0.7-3c0.1-3.8,0.1-7.6,0.2-11.4
		c0-0.5,0-0.9,0-1.5c1.4,0,2.7,0,4.1,0c0,6.7,0,13.4,0,20.1c-1.2,0-2.5,0-3.7,0c0-0.8,0-1.6,0-2.4c-1,1.4-2.3,2.4-3.9,3
		C106.3,186.5,105.5,186.5,104.6,186.5z"/>
	<path d="M230,186.5c-2.9-0.7-3.8-2.8-3.9-5.5c0-3.4,0-6.9-0.1-10.3c0-0.4,0-0.9,0-1.4c-0.9,0-1.7,0-2.5,0c0-1.2,0-2.2,0-3.4
		c0.8,0,1.7-0.1,2.6-0.1c0.1-1.7,0.2-3.4,0.3-5.2c1.2-0.1,2.4-0.3,3.7-0.4c0,1.9,0,3.7,0,5.6c1.3,0,2.5,0,3.8,0c0,1.2,0,2.2,0,3.4
		c-1.2,0-2.4,0-3.8,0c0,1.6,0,3,0,4.4c0,2.2,0,4.3,0,6.5c0,2.3,0.7,2.9,3,2.9c0.4,0,0.9,0,1.3,0c0.6,2.2,0.3,3.1-1.1,3.6
		C232.3,186.5,231.2,186.5,230,186.5z"/>
	<path d="M354,186.5c-3-0.8-3.8-3-3.8-5.7c0-3.4,0-6.8,0-10.2c0-0.4,0-0.9,0-1.4c-0.9,0-1.7,0-2.6,0c0-1.2,0-2.2,0-3.4
		c0.9,0,1.7,0,2.8,0c0-1.5,0.1-2.8,0-4.1c-0.1-1,0.4-1.3,1.2-1.3c0.8,0,1.6-0.1,2.5-0.2c0,1.8,0,3.6,0,5.6c1.4,0,2.6,0,3.9,0
		c0,1.2,0,2.2,0,3.4c-1.2,0-2.4,0-3.8,0c0,1.6,0,3,0,4.4c0,2.1,0,4.2,0,6.2c0,2.6,0.7,3.2,3.3,3.1c0.4,0,0.7,0,1.2,0
		c0,1,0,2.1,0,3.2c-0.4,0.1-0.9,0.3-1.3,0.4C356.3,186.5,355.2,186.5,354,186.5z"/>
	<path d="M79.2,43.2C76.8,51.8,74.4,60.4,72,69c-2.8,10.1-5.6,20.1-8.4,30.2c-2.6,9.4-5.2,18.8-7.7,28.2c-0.3,1-0.7,1.4-1.9,1.4
		c-3.6-0.1-7.3,0-11,0c-7.8-28.6-15.6-57.2-23.4-85.8c0,0-0.1,0-0.1,0c0,28.6,0,57.1,0,85.7c-4.7,0-9.4,0-14.1,0
		c0-34,0-67.9,0-101.9c8.3,0,16.6,0,25.1,0C37.1,50.8,43.7,75,50.5,99.5c0.5-1.5,0.9-2.8,1.3-4.1c1.5-5.2,2.9-10.4,4.4-15.7
		c1.8-6.5,3.7-13,5.5-19.5c1.4-5,2.9-9.9,4.3-14.8c1.6-5.8,3.3-11.6,4.8-17.4c0.3-1,0.7-1.5,1.9-1.5c7.1,0.1,14.2,0,21.3,0
		c0.4,0,0.9,0,1.4,0c0,34.1,0,68,0,102.1c-5.3,0-10.6,0-15.9,0c0-28.5,0-57,0-85.5C79.4,43.2,79.3,43.2,79.2,43.2z"/>
	<path d="M114.7,128.7c0-34,0-68,0-102c0.5,0,0.9,0,1.3,0c9.6,0,19.2-0.1,28.8,0.1c5.7,0.1,11.4,0.7,16.7,2.9c2.1,0.9,4,2.2,5.8,3.6
		c3.2,2.4,5.3,5.7,7,9.3c1.6,3.3,2.6,6.9,2.9,10.6c0.2,2.6,0.4,5.2,0.2,7.7c-0.4,6.8-2.4,13-6.8,18.4c-4.1,4.9-9.3,7.6-15.5,8.5
		c-3.1,0.5-6.3,0.8-9.4,0.9c-4.6,0.2-9.2,0-14,0c0,13.5,0,26.7,0,39.9C126,128.7,120.4,128.7,114.7,128.7z M131.8,39.8
		c0,11.8,0,23.5,0,35.2c3.4,0,6.8,0.1,10.1,0c2.2-0.1,4.5-0.3,6.7-0.7c5.1-1,8.7-3.9,10.1-9.1c0.8-3.1,1.1-6.2,0.9-9.4
		c-0.2-3.8-1.2-7.3-3.4-10.5c-1.8-2.6-4.1-4.5-7.3-4.8c-2.3-0.2-4.6-0.6-6.9-0.7C138.6,39.7,135.2,39.8,131.8,39.8z"/>
	<path d="M257.2,59.7c-5.3,0.8-10.5,1.6-15.8,2.4c-0.3-1.5-0.5-3-0.8-4.5c-0.7-4.1-1.8-8.1-4.1-11.6c-2.4-3.9-5.8-6.3-10.5-6.8
		c-6.9-0.7-11.7,2.3-15.1,8c-2.5,4.3-3.8,9-4.6,13.8c-0.7,4.5-1.2,9-1.2,13.5c0,2.5-0.4,5-0.2,7.5c0.3,4.6,0.9,9.2,1.4,13.9
		c0.5,4,1.7,7.9,3.6,11.4c2.3,4.4,5.6,7.6,10.5,8.7c4.3,0.9,8.5,0.7,12.2-2.1c1.6-1.2,2.9-2.8,3.9-4.5c2.4-3.8,3.4-8.1,4.3-12.5
		c0.6-2.9,0.5-2.9,3.3-2.4c3.4,0.5,6.8,1,10.1,1.4c0.6,0.1,1.2,0.2,1.7,0.2c1,0.1,1,0.8,0.9,1.5c-0.5,2.4-0.8,4.9-1.5,7.2
		c-1.4,5-3.3,9.8-6.4,14c-3.2,4.3-7.2,7.5-12.2,9.5c-5.6,2.2-11.3,2.4-17.1,2.1c-4.2-0.2-8.2-1.4-12-3.3c-5-2.5-8.8-6.2-11.7-10.8
		c-3.5-5.5-5.8-11.6-7.1-18c-0.9-4.2-1.6-8.5-1.7-12.8c-0.1-4.6-0.4-9.2-0.2-13.7c0.4-7.8,1.5-15.6,4.2-23c1.8-4.9,4.3-9.5,7.8-13.4
		c3.6-4.1,8-7,13.2-8.7c2.6-0.8,5.3-1.2,8-1.5c1.8-0.3,3.6-0.3,5.5-0.2c6.8,0.3,13.1,2,18.5,6.5c4.1,3.4,7,7.7,8.9,12.6
		c1.4,3.5,2.3,7.1,3.3,10.7C256.8,56.2,256.9,57.9,257.2,59.7z"/>
	<path d="M372.9,142.5c0,0.8,0,1.5,0,2.3c-122.5,0-245,0-367.6,0c0-0.7,0-1.4,0-2.3C127.8,142.5,250.3,142.5,372.9,142.5z"/>
	<path d="M18.7,186c-1.1,0-2.2,0-3.3,0c-2-7.5-4.1-14.9-6.1-22.3c-0.1,0-0.1,0-0.2,0c0,7.4,0,14.8,0,22.3c-1.3,0-2.5,0-3.7,0
		c0-9,0-18,0-27.2c2.2,0,4.3,0,6.6,0c1.8,6.4,3.5,12.8,5.4,19.5c1.9-6.8,3.7-13.2,5.6-19.6c2.2,0,4.2,0,6.4,0c0,9.1,0,18.1,0,27.2
		c-1.3,0-2.7,0-4.1,0c0-7.4,0-14.8,0-22.3c-0.1,0-0.2,0-0.3-0.1C22.9,171,20.8,178.5,18.7,186z"/>
	<g>
		<path class="st0" d="M473.3,9.9c-2.3,0.9-4.6,1.8-6.9,2.8c-0.2,0.1-0.5,0.5-0.5,0.8c0.1,1.2,0.3,2.5,0.4,3.7
			c0.1,0.8-0.1,1.3-0.8,1.8c-3.4,2.2-6.8,4.4-10.2,6.6c-0.3,0.2-0.7,0.3-1,0.2c-3.9-1.4-7.8-2.9-11.7-4.4c-0.3-0.1-0.5-0.5-0.6-0.8
			c-0.4-1.1-0.4-2.7-1.2-3.2c-0.9-0.6-2.5-0.2-3.7-0.2c-1.1,0-2.2,0.1-3.2,0c-2.7-0.3-5,0.9-7.2,2.2c-0.2,0.1-0.5,0.3-0.8,0.3
			c2-2,4.3-3.4,7-4.7c-4.1-1.2-7.6-3.2-11.1-5.2c0-0.1,0.1-0.2,0.1-0.3c1.2,0.5,2.3,1,3.5,1.3c3,0.8,6.1,1.5,9.2,2.3
			c1.5,0.4,2.4-0.7,3.3-1.4c3.1-2.5,6.2-5.1,9.3-7.6c0.4-0.3,1.1-0.4,1.7-0.3c5.1,1.2,10.2,2.5,15.4,3.7c3,0.7,6,1.3,9,2
			C473.3,9.5,473.3,9.7,473.3,9.9z"/>
		<path class="st0" d="M438.1,88.2c-2.6-0.3-5.3-0.5-8.1-0.9c-1.1-0.1-2,0.5-2.2,1.5c-0.7,3.8-1.3,7.6-2.3,11.2
			c-2.2,7.7-4.5,15.3-7.1,22.9c-1.8,5.5-4.1,10.9-7.4,15.6c-0.9,1.3-2.3,2.4-3.5,3.4c-1.2,1.1-3.3,0.3-4.2-1.3
			c-1.1-2-1.1-4.2-0.8-6.4c1-7.7,4.3-14.9,5.9-22.5c0.8-3.4,1.4-6.9,1.8-10.4c0.4-4.2,0.5-8.5,0.5-12.7c-0.1-4.5-0.9-8.9-2.1-13.2
			c-0.9-3.3-1.8-6.7-3.7-9.6c-2.1-3.3-4.2-6.5-6.5-9.6c-2.5-3.4-5.3-6.5-8-9.7c-1.4-1.7-3-3.3-4.4-4.9c-1.5-1.6-3-3.2-4.4-5
			c-1.9-2.3-1.6-5.4,0-7.6c1.1-1.6,4-1.8,6-0.3c1.5,1.2,2.8,2.7,4.1,4.1c2.2,2.2,4.4,4.5,6.7,6.7c2.5,2.4,5.5,4.2,8.6,5.7
			c2.8,1.3,5.8,2.1,8.9,1.7c0.9-0.1,1.9-0.6,2.7-1c6.1-3.3,10.8-8,14.4-13.9c1.6-2.6,3.3-5,5.1-7.5c1-1.4,2.8-2.1,3.8-1.5
			c0.8,0.4,1.4,1.2,1.8,2c0.9,1.7,0.6,3.5,0.2,5.3c-1.2,5.7-4.2,10.5-7.7,15c-2.4,3-5.2,5.7-6.7,9.3c-1.4,3.5-2.1,7-1.1,10.8
			c1.2,4.1,4.1,6.3,8,7.1c2.7,0.6,5.6,0.8,8.3,0.7c3.6-0.2,7.1-0.8,10.6-1.3c3.9-0.6,7.8-1.3,11.7-2c0.8-0.1,1.6-0.2,2.5-0.2
			c0.9,0,1.2,0.5,1.3,1.3c0.2,2.4-0.6,4.4-2.3,6.1c-3.2,3.4-7.3,5.4-11.6,6.9c-3.9,1.3-7.9,2.4-11.9,3.3
			C443,87.9,440.7,87.9,438.1,88.2z"/>
		<path class="st0" d="M401.8,32.7c-0.4-5.8,4.9-11.7,12-11.2c5.3,0.4,10.4,4.8,10.3,11.3c0,5.7-4.9,11.4-11.8,11
			C407,43.7,401.4,39.1,401.8,32.7z"/>
	</g>
	<path d="M191.7,168.9c1.9-3.1,4-4.1,6.8-3.3c2,0.6,3.3,2,3.3,4c0.1,5.4,0.1,10.8,0.2,16.2c0,0.1-0.1,0.1-0.1,0.2c-1.3,0-2.5,0-4,0
		c0-0.4,0-0.8,0-1.3c0-4,0-7.9,0-11.9c0-0.7-0.1-1.4-0.2-2.1c-0.1-1-0.5-1.8-1.6-2c-1.1-0.2-2.3,0-2.8,1.1c-0.5,1-0.9,2.1-0.9,3.2
		c-0.1,3.8-0.1,7.6-0.1,11.4c0,0.5,0,0.9,0,1.5c-1.4,0-2.7,0-4.2,0c0-0.4,0-0.9,0-1.3c0-4.3,0-8.6,0-12.9c0-2-0.7-2.8-2.1-3
		c-1.7-0.2-2.8,0.6-3.2,2.5c-0.2,1.1-0.3,2.2-0.3,3.3c0,3.7,0,7.5,0,11.4c-1.4,0-2.7,0-4.1,0c0-6.7,0-13.3,0-20c1.2,0,2.4,0,3.7,0
		c0,0.8,0,1.5,0,2.3c1.3-1.8,2.9-2.9,5.1-2.9C189.5,165.4,191,166.5,191.7,168.9z"/>
	<path d="M127.7,158.6c3.6,0.2,7.2,0.1,10.8,0.5c3.1,0.3,5,2.5,5.6,5.5c0.3,1.7,0.3,3.5,0,5.2c-0.7,3.4-3.3,5.3-7,5.5
		c-1.6,0.1-3.2,0-4.8,0c0,3.7,0,7.2,0,10.7c-1.5,0-3,0-4.5,0C127.7,176.9,127.7,167.9,127.7,158.6z M132.2,162.4c0,1.5,0,3.1,0,4.6
		c0,1.5,0,3.1,0,4.8c1.7-0.1,3.3-0.1,4.9-0.5c1.7-0.3,2.5-1.7,2.6-3.8c0.1-2.5-0.7-4.4-2.3-5c-0.2-0.1-0.5-0.2-0.7-0.2
		C135.2,162.4,133.7,162.4,132.2,162.4z"/>
	<path d="M68.1,165.8c-1.4,1.8-2.5,3.5-3.8,5c-1.2,1.4-1.3,2.6-0.5,4.2c1.7,3.5,3.2,7.2,4.9,11c-1.5,0-2.8,0-4.2,0
		c-0.3,0-0.6-0.5-0.7-0.8c-1.1-2.7-2.1-5.3-3.2-8c-0.1-0.4-0.3-0.7-0.4-0.9c-3.7,2.4-2.6,6.3-2.8,9.7c-1.4,0-2.7,0-4.1,0
		c0-9.1,0-18.1,0-27.2c1.4,0,2.7,0,4.1,0c0,5.2,0,10.4,0,15.9c0.4-0.4,0.6-0.6,0.8-0.8c1.7-2.3,3.4-4.6,5-7c0.5-0.8,1.1-1.1,2-1
		C66.1,165.9,67,165.8,68.1,165.8z"/>
	<g>
		<path class="st1" d="M369.6,92.5c-2.3-0.2-4.2-0.4-6-0.5c-0.9-0.1-1.4,0.4-1.7,1.7c-0.9,4.1-1.7,8.3-3,12.4
			c-1.5,5.1-3.3,10.2-5.2,15.1c-1.1,2.8-2.4,5.6-4.6,7.7c-0.8,0.8-1.6,1.6-2.8,1.1c-1.3-0.5-1.8-1.7-1.9-3.1
			c-0.2-2.6,0.4-5.1,1.1-7.6c1.4-5.2,3-10.3,4-15.5c0.7-3.4,0.6-6.9,0.6-10.4c-0.1-5.9-1.2-11.7-4.2-16.9c-1.5-2.6-3.3-5.1-5.3-7.5
			c-3.4-4.1-7-8-10.5-12c-1.3-1.5-1.4-4.1-0.2-5.7c0.7-0.9,2.9-1.2,4-0.2c1.5,1.2,2.9,2.6,4.1,4.1c2,2.4,4.3,4.4,7,5.9
			c1.7,1,3.5,1.7,5.3,2.4c2.4,0.9,4.6,0.2,6.6-1.1c4.2-2.6,7.2-6.4,9.7-10.5c0.7-1.2,1.5-2.3,2.3-3.4c0.7-0.8,1.5-1.6,2.7-1.3
			c1,0.2,1.6,1.5,1.7,2.8c0.2,3.7-1.4,6.9-3.4,9.8c-1.7,2.5-3.7,4.8-5.5,7.2c-1.5,2.1-2.4,4.5-2.4,7.1c0,4.7,2.4,6.7,6.4,7.6
			c3.9,0.8,7.8,0.4,11.7-0.4c3.3-0.6,6.6-1.2,9.9-1.7c1.5-0.2,2.2,0.7,1.9,2.3c-0.5,2.2-1.9,3.7-3.8,4.9c-3.8,2.4-7.9,3.8-12.3,4.8
			C373.8,92.1,371.5,92.2,369.6,92.5z"/>
		<path class="st1" d="M359.3,54c0.2,4.7-3.6,7.7-7.6,7.9c-4.2,0.1-8.2-3.8-7.9-7.9c0.2-4.2,3.2-7.9,8.4-7.7
			C355.9,46.4,359.7,49.8,359.3,54z"/>
	</g>
	<path d="M264.9,165.9c1.2,0,2.4,0,3.7,0c0,0.8,0,1.6,0,2.4c1.4-2.3,3.4-3.2,6-2.8c2,0.3,3.6,1.6,3.9,3.6c0.2,1.2,0.3,2.5,0.3,3.7
		c0,4.1,0,8.2,0,12.3c0,0.3,0,0.5-0.1,0.9c-1.3,0-2.6,0-4.1,0c0-0.4,0-0.8,0-1.3c0-3.9,0-7.8,0-11.7c0-0.6,0-1.3-0.1-1.9
		c-0.1-1.1-0.4-2.1-1.8-2.3c-1.6-0.2-2.8,0.4-3.2,1.9c-0.3,1.2-0.5,2.5-0.5,3.8c-0.1,3.8,0,7.7,0,11.6c-1.4,0-2.7,0-4.1,0
		C264.9,179.3,264.9,172.7,264.9,165.9z"/>
	<path d="M334.9,165.9c0,0.9,0,1.6,0,2.3c1.4-2.4,3.5-3.2,6.1-2.8c1.9,0.3,3.4,1.6,3.7,3.5c0.2,1.4,0.3,2.8,0.3,4.2
		c0,4,0,7.9,0,11.9c0,0.3,0,0.6-0.1,1c-1.4,0-2.7,0-4.1,0c0-0.5,0-0.9,0-1.3c0-3.8,0-7.6,0-11.4c0-0.8,0-1.5-0.1-2.3
		c-0.1-1.1-0.4-2.1-1.8-2.3c-1.5-0.1-2.8,0.4-3.2,1.8c-0.4,1.2-0.5,2.6-0.6,3.9c-0.1,3.4,0,6.8,0,10.2c0,0.4,0,0.9,0,1.4
		c-1.4,0-2.7,0-4.1,0c0-6.7,0-13.3,0-20.1C332.3,165.9,333.5,165.9,334.9,165.9z"/>
	<path d="M98.2,169.8c-0.3,0-0.5,0-0.7,0c-2.4,0.1-3.7,1.1-4.2,3.4c-0.2,1-0.3,2-0.3,3c0,3.2,0,6.5,0,9.8c-1.4,0-2.7,0-4.1,0
		c0-6.6,0-13.3,0-20c1.2,0,2.3,0,3.6,0c0,1.2,0,2.4,0,3.6c1.3-2.2,2.6-4.4,5.7-4C98.2,166.9,98.2,168.3,98.2,169.8z"/>
	<path d="M157.1,165.5c0,1.5,0,2.8,0,4.1c-0.1,0.1-0.2,0.1-0.2,0.1c-3.2,0.1-4.6,1.2-4.9,4.4c-0.3,3.3-0.1,6.7-0.2,10
		c0,0.6,0,1.2,0,1.8c-1.4,0-2.7,0-4.1,0c0-6.7,0-13.4,0-20.1c1.2,0,2.3,0,3.6,0c0,1.3,0,2.5,0,3.8
		C152.6,167.4,153.8,165.2,157.1,165.5z"/>
	<path d="M236.9,165.9c1.3,0,2.6,0,4,0c0,6.7,0,13.4,0,20.1c-1.3,0-2.6,0-4,0C236.9,179.3,236.9,172.6,236.9,165.9z"/>
	<g>
		<path class="st2" d="M325.2,106.1c-1.1-0.1-2.1-0.2-3.2-0.3c-0.7-0.1-1.2,0.1-1.3,0.8c-1,3.8-1.8,7.6-2.9,11.3
			c-0.9,3-2.1,5.9-3.4,8.7c-0.4,1-1.2,1.8-1.9,2.7c-0.5,0.6-1.2,1.3-1.9,0.7c-0.6-0.4-1.1-1.3-1.2-2c-0.3-2.5,0.7-4.8,1.3-7.1
			c1.1-3.8,2.1-7.5,2.2-11.5c0.2-4.8-0.4-9.3-2.7-13.5c-1.1-2-2.6-3.9-4.1-5.7c-1.9-2.3-4-4.4-5.9-6.7c-0.5-0.6-0.8-1.5-0.7-2.3
			c0.1-0.7,0.6-1.5,1.2-1.8c0.9-0.5,2.4,0.2,3.1,1.1c1.8,2.3,3.8,4.4,6.4,5.8c1.2,0.7,2.6,1.2,3.9,1.4c2.1,0.4,3.5-1.1,5-2.2
			c2.4-1.9,3.8-4.5,5.5-7c0.6-0.9,1.5-1.6,2.4-1.2c0.6,0.3,1.1,1.5,0.9,2.2c-0.4,1.8-1,3.6-1.9,5.2c-1.1,2-2.7,3.7-4,5.5
			c-1.2,1.6-1.5,3.5-1.2,5.4c0.4,2.1,2,3.2,4.3,3.6c2.9,0.5,5.8-0.1,8.6-0.6c1.5-0.3,3-0.6,4.5-0.8c0.4-0.1,1.3,0.1,1.3,0.3
			c0.1,0.7,0.1,1.5-0.1,2.2c-0.6,1.4-1.9,2.2-3.3,2.9C332.8,105,329.2,106.1,325.2,106.1z"/>
		<path class="st2" d="M319,81.5c0.3,3-2.6,5-5,5c-2.8,0-5-2.1-5-5c0-2.8,2.1-5.1,5-5.1C316.4,76.5,319.3,78.5,319,81.5z"/>
	</g>
	<g>
		<path class="st3" d="M295.6,111c0.5,1.8-0.5,2.5-1.6,3.2c-2,1.2-4.4,1.7-6.7,1.9c-0.4,0-0.9-0.1-1.4-0.2c-0.9-0.1-1.3,0.2-1.5,1.2
			c-0.9,4.2-1.9,8.4-4.3,12.1c-0.3,0.5-1,0.7-1.5,1.1c-0.3-0.6-0.9-1.2-0.8-1.8c0.1-1.2,0.4-2.5,0.8-3.6c1.2-3.2,1.5-6.4,1.3-9.8
			c-0.3-3-1.6-5.7-3.6-8c-1.3-1.4-2.5-2.8-3.8-4.3c-0.6-0.8-0.6-1.8,0-2.3c0.8-0.6,1.4-0.2,2,0.4c0.8,0.8,1.6,1.7,2.5,2.4
			c3.5,3.1,5.4,2.1,7.9-0.7c0.9-1,1.5-2.2,2.4-3.2c0.2-0.3,0.8-0.5,1-0.4c0.3,0.2,0.5,0.7,0.5,1c0.2,2.3-1.2,3.9-2.4,5.6
			c-0.6,0.9-1.4,1.8-1.6,2.8c-0.4,2.6,0.6,3.5,3.4,3.6c1.7,0.1,3.3-0.4,5-0.6C294,111.2,294.8,111.1,295.6,111z"/>
		<path class="st3" d="M280.7,98.6c1.9,0,2.8,1,2.8,3c0,1.7-1.4,3.1-3,3c-1.6,0-3-1.5-2.9-3.2C277.6,99.9,278.7,98.3,280.7,98.6z"/>
	</g>
	<path d="M236.8,158.7c1.5,0,2.8,0,4.2,0c0,1.4,0,2.8,0,4.3c-1.4,0-2.7,0-4.2,0C236.8,161.6,236.8,160.2,236.8,158.7z"/>
	<path d="M362.4,165.9c1.2,0,2.3,0,3.6,0c0,1.2,0,2.3,0,3.6c0.8-1.1,1.5-2.2,2.3-3.1c0.9-0.9,2.1-1.2,3.5-0.9c0,1,0,2.1,0,3.1
		c0,0.3,0,0.7-0.1,1c-0.2,0-0.3,0.1-0.4,0.1c-3.1,0.1-4.6,1.5-4.7,4.6c-0.1,3.4-0.1,6.7-0.1,10.1c0,0.5,0,0.9,0,1.5
		c-1.4,0-2.7,0-4.1,0C362.4,179.3,362.4,172.6,362.4,165.9z"/>
</g>
</svg>
